<?xml version="1.0" encoding="UTF-8" standalone="no"?>
<svg
   width="64"
   height="64"
   viewBox="0 0 24 24"
   fill="none"
   version="1.1"
   id="svg3"
   sodipodi:docname="bat-charge.svg"
   xml:space="preserve"
   inkscape:version="1.4.2 (ebf0e940d0, 2025-05-08)"
   xmlns:inkscape="http://www.inkscape.org/namespaces/inkscape"
   xmlns:sodipodi="http://sodipodi.sourceforge.net/DTD/sodipodi-0.dtd"
   xmlns="http://www.w3.org/2000/svg"
   xmlns:svg="http://www.w3.org/2000/svg"><defs
     id="defs3" /><sodipodi:namedview
     id="namedview3"
     pagecolor="#505050"
     bordercolor="#eeeeee"
     borderopacity="1"
     inkscape:showpageshadow="0"
     inkscape:pageopacity="0"
     inkscape:pagecheckerboard="0"
     inkscape:deskcolor="#505050"
     inkscape:zoom="5.7527617"
     inkscape:cx="-18.165188"
     inkscape:cy="50.497485"
     inkscape:window-width="1920"
     inkscape:window-height="1080"
     inkscape:window-x="0"
     inkscape:window-y="0"
     inkscape:window-maximized="1"
     inkscape:current-layer="g3" /><rect
     x="3"
     y="6"
     width="16"
     height="12"
     rx="2"
     ry="2"
     stroke="#374151"
     stroke-width="1.5"
     fill="none"
     id="rect1" /><rect
     x="19"
     y="9"
     width="2"
     height="6"
     rx="1"
     fill="#374151"
     id="rect2" /><rect
     x="4.5"
     y="7.5"
     width="13"
     height="9"
     rx="0.5"
     fill="#10b981"
     id="rect3"
     style="fill:#1d4ce9;fill-opacity:1" /><g
     style="fill:#000000"
     id="g3"
     transform="matrix(0.44929852,0,0,0.36996928,5.3615711,7.3791619)"><path
       d="M 18,11.74 A 1,1 0 0 0 17.48,11.11 L 14.09,9.43 15,3.14 A 1,1 0 0 0 13.22,2.39 l -7,9 a 1,1 0 0 0 -0.17,0.87 1,1 0 0 0 0.59,0.67 L 10.91,14.64 10,20.86 A 1,1 0 0 0 10.63,21.93 0.92,0.92 0 0 0 11,22 1,1 0 0 0 11.83,21.55 l 6,-9 A 1,1 0 0 0 18,11.74 Z"
       id="path1"
       style="fill:#ebe200;fill-opacity:1;stroke:#050500;stroke-opacity:1" /></g></svg>
