<!DOCTYPE svg PUBLIC "-//W3C//DTD SVG 1.1//EN" "http://www.w3.org/Graphics/SVG/1.1/DTD/svg11.dtd">
<!-- Uploaded to: SVG Repo, www.svgrepo.com, Transformed by: SVG Repo Mixer Tools -->
<svg version="1.1" id="Layer_1" xmlns="http://www.w3.org/2000/svg" xmlns:xlink="http://www.w3.org/1999/xlink" viewBox="0 0 512 512" xml:space="preserve" width="64px" height="64px" fill="#000000" style="--darkreader-inline-fill: var(--darkreader-background-000000, #000000);" data-darkreader-inline-fill="">
<g id="SVGRepo_bgCarrier" stroke-width="0"/>
<g id="SVGRepo_tracerCarrier" stroke-linecap="round" stroke-linejoin="round"/>
<g id="SVGRepo_iconCarrier"> <path d="M0,346.68v-310c0-5.44,4.72-10,10.48-10H501.6c5.68,0,10.4,4.56,10.4,10v310H0z"/> <g> <path style="fill: rgb(153, 153, 153); --darkreader-inline-fill: var(--darkreader-text-999999, #a8a095);" d="M512,346.68v42.64c0,5.92-4.72,10.72-10.48,10.72H10.48C4.72,400.04,0,395.24,0,389.4v-42.64h512 V346.68z" data-darkreader-inline-fill=""/> <polygon style="fill: rgb(153, 153, 153); --darkreader-inline-fill: var(--darkreader-text-999999, #a8a095);" points="330.64,474.68 181.36,474.68 192,400.04 320,400.04 " data-darkreader-inline-fill=""/> </g> <g> <polygon style="fill: rgb(102, 102, 102); --darkreader-inline-fill: var(--darkreader-text-666666, #a8a095);" points="192,400.04 320,400.04 326.64,446.6 189.52,417.4 " data-darkreader-inline-fill=""/> <rect x="144" y="474.68" style="fill: rgb(102, 102, 102); --darkreader-inline-fill: var(--darkreader-text-666666, #a8a095);" width="224" height="10.64" data-darkreader-inline-fill=""/> </g> <g> <circle style="fill: rgb(255, 255, 255); --darkreader-inline-fill: var(--darkreader-text-ffffff, #e8e6e3);" cx="149.28" cy="69.4" r="10.72" data-darkreader-inline-fill=""/> <circle style="fill: rgb(255, 255, 255); --darkreader-inline-fill: var(--darkreader-text-ffffff, #e8e6e3);" cx="106.64" cy="69.4" r="10.72" data-darkreader-inline-fill=""/> <circle style="fill: rgb(255, 255, 255); --darkreader-inline-fill: var(--darkreader-text-ffffff, #e8e6e3);" cx="64" cy="69.4" r="10.72" data-darkreader-inline-fill=""/> </g> <rect x="181.28" y="64.04" style="fill: rgb(153, 153, 153); --darkreader-inline-fill: var(--darkreader-text-999999, #a8a095);" width="277.36" height="10.64" data-darkreader-inline-fill=""/> <g> <rect x="202.64" y="144.04" style="fill: rgb(255, 102, 0); --darkreader-inline-fill: var(--darkreader-text-ff6600, #ff751a);" width="234.64" height="21.36" data-darkreader-inline-fill=""/> <rect x="74.64" y="144.04" style="fill: rgb(255, 102, 0); --darkreader-inline-fill: var(--darkreader-text-ff6600, #ff751a);" width="96" height="138.64" data-darkreader-inline-fill=""/> </g> <rect x="202.64" y="186.68" style="fill: rgb(188, 188, 188); --darkreader-inline-fill: var(--darkreader-text-bcbcbc, #beb8b0);" width="234.64" height="10.64" data-darkreader-inline-fill=""/> <rect x="202.64" y="272.04" style="fill: rgb(255, 102, 0); --darkreader-inline-fill: var(--darkreader-text-ff6600, #ff751a);" width="234.64" height="10.64" data-darkreader-inline-fill=""/> <rect x="202.64" y="208.04" style="fill: rgb(188, 188, 188); --darkreader-inline-fill: var(--darkreader-text-bcbcbc, #beb8b0);" width="234.64" height="10.64" data-darkreader-inline-fill=""/> <g> <rect x="202.64" y="240.04" style="fill: rgb(255, 255, 255); --darkreader-inline-fill: var(--darkreader-text-ffffff, #e8e6e3);" width="61.36" height="10.64" data-darkreader-inline-fill=""/> <rect x="289.36" y="240.04" style="fill: rgb(255, 255, 255); --darkreader-inline-fill: var(--darkreader-text-ffffff, #e8e6e3);" width="61.36" height="10.64" data-darkreader-inline-fill=""/> <rect x="376" y="240.04" style="fill: rgb(255, 255, 255); --darkreader-inline-fill: var(--darkreader-text-ffffff, #e8e6e3);" width="61.36" height="10.64" data-darkreader-inline-fill=""/> <path style="opacity: 0.2; fill: rgb(255, 255, 255); --darkreader-inline-fill: var(--darkreader-text-ffffff, #e8e6e3);" d="M460.72,26.68H10.48C4.72,26.68,0,31.24,0,36.68v179.44 L460.72,26.68z" data-darkreader-inline-fill=""/> </g> </g>
</svg>