<?xml version="1.0" encoding="UTF-8"?>
<svg width="40" height="40" viewBox="0 0 32 32" class="" xmlns="http://www.w3.org/2000/svg"><defs><linearGradient id="gradient-0" x1="0%" y1="0%" x2="100%" y2="100%"><stop offset="0%" stop-color="#9ca3af" stop-opacity="1"/><stop offset="100%" stop-color="#9ca3af" stop-opacity="0.8"/></linearGradient><filter id="glow-0" x="-20%" y="-20%" width="140%" height="140%"><feGaussianBlur stdDeviation="0.5" result="coloredBlur"/><feMerge><feMergeNode in="coloredBlur"/><feMergeNode in="SourceGraphic"/></feMerge></filter></defs><g filter="url(#glow-0)"><rect x="2" y="10" width="6" height="12" rx="1.5" fill="url(#gradient-0)" stroke="rgba(255,255,255,0.4)" stroke-width="0.4"/><circle cx="5" cy="16" r="2.5" fill="rgba(0,0,0,0.3)" stroke="url(#gradient-0)" stroke-width="0.8"/><circle cx="5" cy="16" r="4" fill="none" stroke="url(#gradient-0)" stroke-width="0.6" opacity="0.6"/><circle cx="5" cy="16" r="1.2" fill="url(#gradient-0)" opacity="0.8"/><path d="M8 10 L14 8 L14 24 L8 22 Z" fill="url(#gradient-0)" stroke="rgba(255,255,255,0.3)" stroke-width="0.3" opacity="0.9"/></g><g><rect x="18" y="14" width="2" height="4" rx="1" fill="rgba(255,255,255,0.15)" stroke="rgba(255,255,255,0.1)" stroke-width="0.2"/></g><g><rect x="21.5" y="12.5" width="2" height="7" rx="1" fill="rgba(255,255,255,0.15)" stroke="rgba(255,255,255,0.1)" stroke-width="0.2"/></g><g><rect x="25" y="11" width="2" height="10" rx="1" fill="rgba(255,255,255,0.15)" stroke="rgba(255,255,255,0.1)" stroke-width="0.2"/></g><g><rect x="28.5" y="9.5" width="2" height="13" rx="1" fill="rgba(255,255,255,0.15)" stroke="rgba(255,255,255,0.1)" stroke-width="0.2"/></g><g transform="translate(16, 12)" filter="url(#glow-0)"><circle cx="4" cy="4" r="5" fill="rgba(0,0,0,0.4)" stroke="rgba(255,255,255,0.2)" stroke-width="0.5"/><path d="M2 2 L6 6 M6 2 L2 6" stroke="#9ca3af" stroke-width="2" stroke-linecap="round" stroke-linejoin="round"/></g></svg>