<?xml version="1.0" encoding="UTF-8"?>
<svg width="40" height="40" viewBox="0 0 32 32" class="" xmlns="http://www.w3.org/2000/svg"><defs><linearGradient id="gradient-10" x1="0%" y1="0%" x2="100%" y2="100%"><stop offset="0%" stop-color="#22c55e" stop-opacity="1"/><stop offset="100%" stop-color="#22c55e" stop-opacity="0.8"/></linearGradient><filter id="glow-10" x="-20%" y="-20%" width="140%" height="140%"><feGaussianBlur stdDeviation="0.5" result="coloredBlur"/><feMerge><feMergeNode in="coloredBlur"/><feMergeNode in="SourceGraphic"/></feMerge></filter></defs><g filter="url(#glow-10)"><rect x="2" y="10" width="6" height="12" rx="1.5" fill="url(#gradient-10)" stroke="rgba(255,255,255,0.4)" stroke-width="0.4"/><circle cx="5" cy="16" r="2.5" fill="rgba(0,0,0,0.3)" stroke="url(#gradient-10)" stroke-width="0.8"/><circle cx="5" cy="16" r="4" fill="none" stroke="url(#gradient-10)" stroke-width="0.6" opacity="0.6"/><circle cx="5" cy="16" r="1.2" fill="url(#gradient-10)" opacity="0.8"/><path d="M8 10 L14 8 L14 24 L8 22 Z" fill="url(#gradient-10)" stroke="rgba(255,255,255,0.3)" stroke-width="0.3" opacity="0.9"/></g><g><rect x="18" y="14" width="2" height="4" rx="1" fill="rgba(255,255,255,0.15)" stroke="rgba(255,255,255,0.1)" stroke-width="0.2"/><rect x="18" y="14" width="2" height="4" rx="1" fill="url(#gradient-10)" filter="url(#glow-10)" opacity="1" stroke="rgba(255,255,255,0.3)" stroke-width="0.2"/></g><g><rect x="21.5" y="12.5" width="2" height="7" rx="1" fill="rgba(255,255,255,0.15)" stroke="rgba(255,255,255,0.1)" stroke-width="0.2"/></g><g><rect x="25" y="11" width="2" height="10" rx="1" fill="rgba(255,255,255,0.15)" stroke="rgba(255,255,255,0.1)" stroke-width="0.2"/></g><g><rect x="28.5" y="9.5" width="2" height="13" rx="1" fill="rgba(255,255,255,0.15)" stroke="rgba(255,255,255,0.1)" stroke-width="0.2"/></g><g transform="translate(2, 26)"><circle cx="0" cy="0" r="0.5" fill="#22c55e" opacity="0.7"/></g></svg>